<svg
  version="1.0"
  xmlns="http://www.w3.org/2000/svg"
  width="37px"
  height="45px"
  viewBox="0 0 60.000000 60.000000"
  preserveAspectRatio="xMidYMid meet">

  <style>
    path {
      fill: #000;
    }
    @media (prefers-color-scheme: dark) {
      path {
      fill: #fff;
      }
    }
  </style>

  <g
    transform="translate(0.000000,60.000000) scale(0.100000,-0.100000)"
    fill="#000000"
    stroke="none">

    <path d="M140 549 c-36 -15 -60 -39 -60 -61 0 -15 -5 -17 -27 -12 -25 7 -27 6
      -15 -9 8 -9 11 -21 8 -26 -4 -5 -2 -12 3 -16 5 -3 14 2 19 11 8 15 11 15 31
      -5 24 -24 48 -26 75 -6 54 41 130 1 142 -74 5 -30 11 -41 24 -41 23 0 30 20
      30 84 0 58 -23 103 -72 139 -31 23 -120 32 -158 16z m20 -54 c0 -8 -4 -15 -10
      -15 -5 0 -10 7 -10 15 0 8 5 15 10 15 6 0 10 -7 10 -15z"/>
    <path d="M213 402 c10 -10 17 -35 17 -55 0 -34 2 -37 29 -37 20 0 32 6 36 19
      13 41 -24 91 -68 91 -29 0 -29 -1 -14 -18z"/>
    <path d="M81 269 c-14 -14 -21 -30 -19 -47 l3 -27 195 0 195 0 3 27 c2 17 -4
      34 -17 47 -19 19 -33 21 -179 21 -147 0 -160 -2 -181 -21z"/>
    <path d="M547 178 c-12 -10 -15 -23 -10 -55 6 -48 23 -55 47 -21 19 27 21 59
      4 76 -15 15 -20 15 -41 0z"/>
    <path d="M16 148 c-22 -31 -20 -64 4 -88 19 -19 33 -20 240 -20 207 0 221 1
      240 20 25 25 26 72 2 93 -16 15 -48 17 -245 17 -222 0 -226 0 -241 -22z"/>

  </g>
  
</svg>